PathFileType	4	(X/Y/Z)	./resultDataOpenSim/trcMotMarkerGrf/sub10/qtm-04-01.trc
DataRate	CameraRate	NumFrames	NumMarkers	Units	OrigDataRate	OrigDataStartFrame	OrigNumFrames
250.000000	250.000000	7	24	m	250.000000	309	493
Frame#	Time	L.Toe.Tip			R.Toe.Tip			L.Ankle.Lat			R.Ankle.Lat			L.Ankle.Med			R.Ankle.Med			L.Heel			R.Heel			L.Knee.Lat			R.Knee.Lat			L.Knee.Med			R.Knee.Med			L.Thigh.Upper			R.Thigh.Upper			L.ASIS			R.ASIS			V.Sacral			L.Acromium			R.Acromium			C7			L.Elbow			R.Elbow			L.Wrist.Lat			R.Wrist.Lat
		X1	Y1	Z1	X2	Y2	Z2	X3	Y3	Z3	X4	Y4	Z4	X5	Y5	Z5	X6	Y6	Z6	X7	Y7	Z7	X8	Y8	Z8	X9	Y9	Z9	X10	Y10	Z10	X11	Y11	Z11	X12	Y12	Z12	X13	Y13	Z13	X14	Y14	Z14	X15	Y15	Z15	X16	Y16	Z16	X17	Y17	Z17	X18	Y18	Z18	X19	Y19	Z19	X20	Y20	Z20	X21	Y21	Z21	X22	Y22	Z22	X23	Y23	Z23	X24	Y24	Z24

309	1.232	0.11169678	-0.032861797	-0.042089781	0.96490491	0.044748862	0.051426533	0.037820661	0.079553571	-0.07716202	0.82744633	0.052659947	0.10386701	0.066887142	0.091517804	-5.6013505e-05	0.83757237	0.081290122	0.018075408	-0.018060328	0.10248669	-0.027367868	0.77436486	0.027456901	0.061835284	0.27219349	0.38761534	-0.12111126	0.75679157	0.44091273	0.12459224	0.29556951	0.34985523	-0.0048950252	0.7534202	0.44638539	-0.0026207434	0.40776776	0.74903545	-0.17033077	0.56157965	0.79654464	0.19023302	0.50733431	0.84554398	-0.14288731	0.59299	0.87436827	0.088472737	0.36991482	0.87742206	0.047550032	0.52123056	1.3323082	-0.15989757	0.49250727	1.3327693	0.15770109	0.42810657	1.3567831	-0.01315538	0.560142	0.97833029	-0.21210917	0.29948303	1.0489668	0.17438909	0.80763999	0.99822606	-0.17007136	0.28085192	0.84124549	0.30051949
310	1.236	0.11325814	-0.033315464	-0.042637903	0.96663975	0.043038785	0.050939173	0.043031261	0.081455721	-0.078516531	0.82897096	0.052679337	0.10359292	0.073085709	0.092629456	-0.001745078	0.83933617	0.080813461	0.017496941	-0.011385264	0.10608526	-0.028029992	0.77535081	0.028107725	0.061872383	0.28082212	0.38731069	-0.12177423	0.76364232	0.44172962	0.12394635	0.30429927	0.34889793	-0.005985639	0.75910815	0.44641405	-0.0033711022	0.4161299	0.74807869	-0.17029349	0.5690206	0.79752896	0.19058103	0.5157779	0.84486298	-0.14221308	0.60051594	0.87501234	0.089071345	0.37711482	0.87807557	0.047461046	0.52840742	1.3328386	-0.15903324	0.49950504	1.3330518	0.15847598	0.43511575	1.3570317	-0.012257583	0.56606077	0.97873571	-0.21158769	0.3072334	1.0488672	0.17434763	0.81360282	0.99746162	-0.16936686	0.28810492	0.84155148	0.30118997
311	1.24	0.11475914	-0.033949016	-0.043151063	0.96802283	0.041816782	0.05040797	0.048543666	0.083265593	-0.079914589	0.83016298	0.052803923	0.10304325	0.079650597	0.09364774	-0.0035093846	0.8404926	0.080334122	0.016796321	-0.0043361746	0.10967964	-0.028713301	0.77606584	0.028538646	0.06169209	0.28979986	0.38690762	-0.12254175	0.77089054	0.44288583	0.12326385	0.31333629	0.34786977	-0.0072012575	0.76478366	0.44689312	-0.0043077795	0.42453401	0.74704469	-0.17031503	0.5765415	0.79860954	0.19094694	0.52416837	0.84419599	-0.14145782	0.60796395	0.87570641	0.089654791	0.38404229	0.87878424	0.047428629	0.53559676	1.3334043	-0.15815054	0.50648917	1.3333651	0.15922169	0.44215086	1.3573234	-0.011380118	0.57186264	0.97921502	-0.21109551	0.31506778	1.0487542	0.17435833	0.81948832	0.9965846	-0.16872418	0.29549909	0.84184868	0.30189533
312	1.244	0.11615696	-0.034685815	-0.043570466	0.96905695	0.041023997	0.049923052	0.054351761	0.085029126	-0.081334738	0.83094854	0.05306298	0.1023933	0.086507297	0.094629355	-0.0053150354	0.84116212	0.079879418	0.016070611	0.0030277335	0.11330898	-0.029453747	0.77659828	0.028805291	0.061378999	0.29905894	0.38638534	-0.12344222	0.77828258	0.44422025	0.12248718	0.32266949	0.34675548	-0.0085528806	0.77046123	0.4477946	-0.0054042452	0.43296506	0.74593303	-0.17039637	0.58412177	0.79980849	0.19133543	0.53249373	0.84354795	-0.140617	0.61532207	0.87643359	0.090208647	0.39066589	0.87954803	0.047471732	0.54278268	1.3340082	-0.15725063	0.513447	1.3337077	0.15993513	0.44919226	1.357648	-0.010518338	0.57755014	0.97976298	-0.21064233	0.32293273	1.0486331	0.17440744	0.82528181	0.99557248	-0.16812072	0.30303629	0.84214416	0.30264494
313	1.248	0.11745212	-0.035312912	-0.043880508	0.96980594	0.040531634	0.049561492	0.060408722	0.086836677	-0.082758215	0.8313595	0.053428916	0.10180039	0.093541039	0.095652818	-0.0071109135	0.84152872	0.079503746	0.015417614	0.010641752	0.11703545	-0.030275942	0.77702839	0.028980462	0.061051529	0.30849879	0.38573626	-0.12450049	0.78565911	0.44560801	0.12161592	0.33229696	0.34554028	-0.010055199	0.776189	0.44906735	-0.0065898238	0.44141822	0.74475215	-0.17052337	0.59171123	0.80113382	0.19171523	0.54074031	0.84292634	-0.13969197	0.62259848	0.87717872	0.090727822	0.39695132	0.88036751	0.047610971	0.54995316	1.3346482	-0.15634025	0.52037502	1.3340778	0.1606144	0.45621281	1.3580008	-0.0096710927	0.58313972	0.9803592	-0.21020786	0.33080287	1.0485193	0.17448257	0.83097511	0.99441532	-0.16754331	0.31071334	0.84243207	0.30343176
314	1.252	0.11873635	-0.035537016	-0.044097018	0.97039291	0.040206902	0.049360313	0.0666415	0.088793068	-0.084168308	0.83151177	0.053823151	0.10132931	0.10063162	0.096814721	-0.0088163965	0.84177415	0.079240435	0.014880644	0.018441145	0.12091844	-0.031183907	0.77739914	0.029117287	0.060791391	0.3180787	0.38497333	-0.12571256	0.79297586	0.44696865	0.12069763	0.34222115	0.34420644	-0.011723494	0.78202499	0.45063466	-0.0077910707	0.44989044	0.74351252	-0.17067296	0.59925176	0.80255893	0.19203284	0.54889395	0.84233184	-0.13868804	0.62981435	0.87793176	0.091210107	0.40288036	0.88124087	0.047850259	0.5570988	1.3353138	-0.15543204	0.52727508	1.3344715	0.1612594	0.4631887	1.3583804	-0.0088434449	0.58865903	0.98097643	-0.2097584	0.33867	1.0484244	0.17457617	0.83657654	0.9931274	-0.1669914	0.31851817	0.84269494	0.30423595
315	1.256	0.12017213	-0.035156695	-0.044244756	0.97089787	0.039962174	0.049294775	0.072996609	0.090971189	-0.0855384	0.83153857	0.054168228	0.10096899	0.10770591	0.098212064	-0.010361541	0.8420258	0.079077795	0.01445084	0.026364607	0.12499621	-0.032180412	0.77771711	0.029233721	0.060619899	0.32784575	0.38413196	-0.12703332	0.80019857	0.44825397	0.11977643	0.35243809	0.34273584	-0.01355476	0.78799597	0.45238849	-0.0089436268	0.45837731	0.74223008	-0.17082755	0.60669626	0.80402988	0.19224108	0.55693814	0.84175582	-0.13761516	0.63698876	0.87869069	0.091659269	0.40848925	0.88215782	0.048142498	0.56420996	1.3359934	-0.15454172	0.53414589	1.3348835	0.16186939	0.47010389	1.3587846	-0.0080478272	0.59412855	0.98160262	-0.20927765	0.34653112	1.0483426	0.17468889	0.84209455	0.99173352	-0.16646015	0.32643892	0.84291401	0.30504264
